<?xml version="1.0" encoding="utf-8"?>
<!-- Generator: Adobe Illustrator 25.0.0, SVG Export Plug-In . SVG Version: 6.00 Build 0)  -->
<svg version="1.1" id="Слой_1" xmlns="http://www.w3.org/2000/svg" xmlns:xlink="http://www.w3.org/1999/xlink" x="0px" y="0px"
	 width="299.6px" height="228.7px" viewBox="0 0 299.6 228.7" style="enable-background:new 0 0 299.6 228.7;" xml:space="preserve"
	>
<style type="text/css">
	.st0{fill:#E16162;}
</style>
<path class="st0" d="M197.2,113.9l62.4-63.2c4.1-4.1,4.1-10.8,0-14.9L229,5.3c-4.1-4.1-10.8-4.1-14.9,0l-58.5,58.8
	c-4.1,4.1-10.7,4.1-14.8,0.1L83.8,8.7c-4.1-4-10.7-4-14.8,0.1L40,38c-4.1,4.1-4.1,10.8,0.1,14.9l62.4,61.8L40,178
	c-4.1,4.1-4.1,10.8,0,14.9l30.6,30.6c4.1,4.1,10.8,4.1,14.9,0l58.5-58.8c4.1-4.1,10.7-4.1,14.8-0.1l57.1,55.5c4.1,4,10.7,4,14.8-0.1
	l29-29.2c4.1-4.1,4.1-10.8-0.1-14.9L197.2,113.9z"/>
</svg>
